# xmcd
#
# Track frame offsets:
#	150
#	11751
#	31072
#	41730
#	54258
#	66620
#	78898
#	95056
#	108356
#	130384
#	143550
#	155229
#	166697
#	181466
#	196226
#	207122
#
# Disc length: 3020 seconds
# Revision: 0
# Processed by: cddbd v1.5.2PL0 Copyright (c) Steve Scherf et al.
# Submitted via: dBpowerAMP V12.0
#
DISCID=d90bca10
DTITLE=Old Buck - Old Buck
DYEAR=2012
DGENRE=Old-Time
TTITLE0=Chilly WInds
TTITLE1=Tribulations
TTITLE2=Nancy Ann
TTITLE3=Highlander's Farewell
TTITLE4=Free State Hornpipe
TTITLE5=Rocky Road To Dublin
TTITLE6=False Hearted Lover's Blues
TTITLE7=Black Jack Grove
TTITLE8=Soldier's Farewell
TTITLE9=Mike In The Wilderness
TTITLE10=John Sharp's Tune
TTITLE11=Icy Mountain
TTITLE12=Willow Garden
TTITLE13=Fisher's Hornpipe  
TTITLE14=Tippin' Back The Corn
TTITLE15=You Win Again
EXTD=
EXTT0=
EXTT1=
EXTT2=
EXTT3=
EXTT4=
EXTT5=
EXTT6=
EXTT7=
EXTT8=
EXTT9=
EXTT10=
EXTT11=
EXTT12=
EXTT13=
EXTT14=
EXTT15=
PLAYORDER=
